<mxfile host="Electron" modified="2023-12-06T14:32:12.615Z" agent="Mozilla/5.0 (Windows NT 10.0; Win64; x64) AppleWebKit/537.36 (KHTML, like Gecko) draw.io/22.1.2 Chrome/114.0.5735.289 Electron/25.9.4 Safari/537.36" etag="4TzqNUMAOqzNAOOfZ69f" version="22.1.2" type="device">
  <diagram name="PÃ¡gina-1" id="Qwl6nszRBij0l1RV34sq">
    <mxGraphModel dx="1430" dy="830" grid="1" gridSize="10" guides="1" tooltips="1" connect="1" arrows="1" fold="1" page="1" pageScale="1" pageWidth="1169" pageHeight="827" math="0" shadow="0">
      <root>
        <mxCell id="0" />
        <mxCell id="1" parent="0" />
        <mxCell id="mM8h9sNhqRyJ8NELgbx6-3" value="" style="rounded=0;whiteSpace=wrap;html=1;fillColor=none;" vertex="1" parent="1">
          <mxGeometry x="180" y="140" width="540" height="430" as="geometry" />
        </mxCell>
        <mxCell id="mM8h9sNhqRyJ8NELgbx6-1" value="Client&lt;br&gt;" style="points=[[0.35,0,0],[0.98,0.51,0],[1,0.71,0],[0.67,1,0],[0,0.795,0],[0,0.65,0]];verticalLabelPosition=bottom;sketch=0;html=1;verticalAlign=top;aspect=fixed;align=center;pointerEvents=1;shape=mxgraph.cisco19.user;fillColor=#005073;strokeColor=none;" vertex="1" parent="1">
          <mxGeometry x="20" y="330" width="50" height="50" as="geometry" />
        </mxCell>
        <mxCell id="mM8h9sNhqRyJ8NELgbx6-2" value="Azure subcription" style="sketch=0;pointerEvents=1;shadow=0;dashed=0;html=1;strokeColor=none;fillColor=#505050;labelPosition=left;verticalLabelPosition=middle;outlineConnect=0;verticalAlign=middle;align=right;shape=mxgraph.office.clouds.azure;textDirection=ltr;" vertex="1" parent="1">
          <mxGeometry x="110" y="100" width="103" height="66" as="geometry" />
        </mxCell>
        <mxCell id="mM8h9sNhqRyJ8NELgbx6-5" value="Azure Active directory" style="image;aspect=fixed;html=1;points=[];align=center;fontSize=12;image=img/lib/azure2/identity/Azure_Active_Directory.svg;labelPosition=center;verticalLabelPosition=top;verticalAlign=bottom;" vertex="1" parent="1">
          <mxGeometry x="220" y="220" width="70" height="64" as="geometry" />
        </mxCell>
        <mxCell id="mM8h9sNhqRyJ8NELgbx6-6" value="Resource Group" style="fontStyle=0;verticalAlign=top;align=center;spacingTop=-2;fillColor=none;rounded=0;whiteSpace=wrap;html=1;strokeColor=#919191;strokeWidth=2;dashed=1;container=1;collapsible=0;expand=0;recursiveResize=0;" vertex="1" parent="1">
          <mxGeometry x="330" y="160" width="370" height="390" as="geometry" />
        </mxCell>
        <mxCell id="mM8h9sNhqRyJ8NELgbx6-7" value="" style="image;sketch=0;aspect=fixed;html=1;points=[];align=center;fontSize=12;image=img/lib/mscae/ResourceGroup.svg;" vertex="1" parent="mM8h9sNhqRyJ8NELgbx6-6">
          <mxGeometry x="-20" y="-10" width="50" height="40" as="geometry" />
        </mxCell>
        <mxCell id="mM8h9sNhqRyJ8NELgbx6-8" value="" style="rounded=0;whiteSpace=wrap;html=1;" vertex="1" parent="mM8h9sNhqRyJ8NELgbx6-6">
          <mxGeometry x="40" y="130" width="120" height="184" as="geometry" />
        </mxCell>
        <mxCell id="mM8h9sNhqRyJ8NELgbx6-9" value="App Service&lt;br&gt;" style="image;sketch=0;aspect=fixed;html=1;points=[];align=center;fontSize=12;image=img/lib/mscae/App_Services.svg;" vertex="1" parent="mM8h9sNhqRyJ8NELgbx6-6">
          <mxGeometry x="75" y="180" width="50" height="50" as="geometry" />
        </mxCell>
        <mxCell id="mM8h9sNhqRyJ8NELgbx6-10" value="App Service plan&lt;br&gt;" style="image;aspect=fixed;html=1;points=[];align=center;fontSize=12;image=img/lib/azure2/app_services/App_Service_Plans.svg;" vertex="1" parent="mM8h9sNhqRyJ8NELgbx6-6">
          <mxGeometry x="20" y="290" width="64" height="64" as="geometry" />
        </mxCell>
        <mxCell id="mM8h9sNhqRyJ8NELgbx6-11" value="" style="rounded=0;whiteSpace=wrap;html=1;" vertex="1" parent="mM8h9sNhqRyJ8NELgbx6-6">
          <mxGeometry x="170" y="40" width="180" height="100" as="geometry" />
        </mxCell>
        <mxCell id="mM8h9sNhqRyJ8NELgbx6-13" value="SQL Server&lt;br&gt;" style="image;aspect=fixed;html=1;points=[];align=center;fontSize=12;image=img/lib/azure2/databases/SQL_Server.svg;" vertex="1" parent="mM8h9sNhqRyJ8NELgbx6-6">
          <mxGeometry x="190" y="56" width="48" height="48" as="geometry" />
        </mxCell>
        <mxCell id="mM8h9sNhqRyJ8NELgbx6-14" value="SQL Database" style="image;aspect=fixed;html=1;points=[];align=center;fontSize=12;image=img/lib/azure2/databases/SQL_Database.svg;" vertex="1" parent="mM8h9sNhqRyJ8NELgbx6-6">
          <mxGeometry x="280" y="60" width="33" height="44" as="geometry" />
        </mxCell>
        <mxCell id="mM8h9sNhqRyJ8NELgbx6-15" value="Application insight" style="image;aspect=fixed;html=1;points=[];align=center;fontSize=12;image=img/lib/azure2/management_governance/Application_Insights.svg;" vertex="1" parent="mM8h9sNhqRyJ8NELgbx6-6">
          <mxGeometry x="255" y="230" width="44" height="63" as="geometry" />
        </mxCell>
        <mxCell id="mM8h9sNhqRyJ8NELgbx6-16" value="Azure key vault" style="image;aspect=fixed;html=1;points=[];align=center;fontSize=12;image=img/lib/azure2/security/Key_Vaults.svg;labelPosition=center;verticalLabelPosition=top;verticalAlign=bottom;" vertex="1" parent="mM8h9sNhqRyJ8NELgbx6-6">
          <mxGeometry x="57" y="36" width="68" height="68" as="geometry" />
        </mxCell>
        <mxCell id="mM8h9sNhqRyJ8NELgbx6-26" value="" style="endArrow=classic;startArrow=classic;html=1;rounded=0;" edge="1" parent="mM8h9sNhqRyJ8NELgbx6-6" target="mM8h9sNhqRyJ8NELgbx6-11">
          <mxGeometry width="50" height="50" relative="1" as="geometry">
            <mxPoint x="160" y="180" as="sourcePoint" />
            <mxPoint x="210" y="130" as="targetPoint" />
          </mxGeometry>
        </mxCell>
        <mxCell id="mM8h9sNhqRyJ8NELgbx6-27" value="" style="endArrow=classic;html=1;rounded=0;" edge="1" parent="mM8h9sNhqRyJ8NELgbx6-6" source="mM8h9sNhqRyJ8NELgbx6-8" target="mM8h9sNhqRyJ8NELgbx6-15">
          <mxGeometry width="50" height="50" relative="1" as="geometry">
            <mxPoint x="120" y="120" as="sourcePoint" />
            <mxPoint x="170" y="70" as="targetPoint" />
          </mxGeometry>
        </mxCell>
        <mxCell id="mM8h9sNhqRyJ8NELgbx6-29" value="" style="endArrow=classic;html=1;rounded=0;" edge="1" parent="mM8h9sNhqRyJ8NELgbx6-6" source="mM8h9sNhqRyJ8NELgbx6-8" target="mM8h9sNhqRyJ8NELgbx6-16">
          <mxGeometry width="50" height="50" relative="1" as="geometry">
            <mxPoint x="120" y="120" as="sourcePoint" />
            <mxPoint x="170" y="70" as="targetPoint" />
          </mxGeometry>
        </mxCell>
        <mxCell id="mM8h9sNhqRyJ8NELgbx6-19" value="Api&lt;br&gt;" style="rounded=0;whiteSpace=wrap;html=1;labelPosition=center;verticalLabelPosition=bottom;align=center;verticalAlign=top;" vertex="1" parent="1">
          <mxGeometry x="740" y="262.5" width="95" height="185" as="geometry" />
        </mxCell>
        <mxCell id="mM8h9sNhqRyJ8NELgbx6-17" value="" style="sketch=0;html=1;dashed=0;whitespace=wrap;fillColor=#2875E2;strokeColor=#ffffff;points=[[0.005,0.63,0],[0.1,0.2,0],[0.9,0.2,0],[0.5,0,0],[0.995,0.63,0],[0.72,0.99,0],[0.5,1,0],[0.28,0.99,0]];verticalLabelPosition=bottom;align=center;verticalAlign=top;shape=mxgraph.kubernetes.icon;prIcon=api" vertex="1" parent="1">
          <mxGeometry x="762.5" y="291.5" width="50" height="48" as="geometry" />
        </mxCell>
        <mxCell id="mM8h9sNhqRyJ8NELgbx6-20" value="" style="sketch=0;html=1;dashed=0;whitespace=wrap;fillColor=#2875E2;strokeColor=#ffffff;points=[[0.005,0.63,0],[0.1,0.2,0],[0.9,0.2,0],[0.5,0,0],[0.995,0.63,0],[0.72,0.99,0],[0.5,1,0],[0.28,0.99,0]];verticalLabelPosition=bottom;align=center;verticalAlign=top;shape=mxgraph.kubernetes.icon;prIcon=api" vertex="1" parent="1">
          <mxGeometry x="762.5" y="366" width="50" height="48" as="geometry" />
        </mxCell>
        <mxCell id="mM8h9sNhqRyJ8NELgbx6-21" value="" style="endArrow=classic;html=1;rounded=0;" edge="1" parent="1" target="mM8h9sNhqRyJ8NELgbx6-8">
          <mxGeometry width="50" height="50" relative="1" as="geometry">
            <mxPoint x="70" y="361.5" as="sourcePoint" />
            <mxPoint x="110" y="320" as="targetPoint" />
          </mxGeometry>
        </mxCell>
        <mxCell id="mM8h9sNhqRyJ8NELgbx6-22" value="" style="endArrow=classic;html=1;rounded=0;dashed=1;" edge="1" parent="1" target="mM8h9sNhqRyJ8NELgbx6-5">
          <mxGeometry width="50" height="50" relative="1" as="geometry">
            <mxPoint x="230" y="370" as="sourcePoint" />
            <mxPoint x="280" y="320" as="targetPoint" />
          </mxGeometry>
        </mxCell>
        <mxCell id="mM8h9sNhqRyJ8NELgbx6-28" value="" style="endArrow=classic;startArrow=classic;html=1;rounded=0;" edge="1" parent="1" source="mM8h9sNhqRyJ8NELgbx6-8" target="mM8h9sNhqRyJ8NELgbx6-19">
          <mxGeometry width="50" height="50" relative="1" as="geometry">
            <mxPoint x="450" y="280" as="sourcePoint" />
            <mxPoint x="500" y="230" as="targetPoint" />
          </mxGeometry>
        </mxCell>
      </root>
    </mxGraphModel>
  </diagram>
</mxfile>
